<svg width="74" height="66" viewBox="0 0 74 66" fill="none" xmlns="http://www.w3.org/2000/svg">
<path d="M19.3116 49.7905H20.2989V57.3456H30.4925V49.7905H31.4796V65.8655H30.4925V58.2642H20.2989V65.8655H19.3116V49.7905Z" fill="#3E484E"/>
<path d="M39.6526 49.7905H40.7087L46.7238 65.8655H45.6677L43.5784 60.3081H36.7598L34.6934 65.8655H33.6372L39.6526 49.7905ZM43.2341 59.3895L40.8005 52.8677C40.5479 52.1788 40.2035 50.9388 40.2035 50.9388H40.1576C40.1576 50.9388 39.8132 52.1788 39.5607 52.8677L37.1041 59.3895H43.2341Z" fill="#3E484E"/>
<path d="M50.4887 50.709H44.4966V49.7905H57.4682V50.709H51.4759V65.8655H50.4887V50.709Z" fill="#3E484E"/>
<path d="M64.7458 50.709H58.7537V49.7905H71.7253V50.709H65.733V65.8655H64.7458V50.709Z" fill="#3E484E"/>
<path d="M21.6838 25.4131L32.1268 33.0098L37.1782 14.1416L21.6838 25.4131Z" fill="#ED1C25"/>
<path d="M37.3508 14.0162L32.2429 33.0945L41.6033 39.9036V10.9229L37.3508 14.0162Z" fill="#ED1C25"/>
<path d="M24.2703 30.0391L18.7493 32.4847L23.0093 38.61L29.5311 33.8659L24.2703 30.0391Z" fill="#01A4E1"/>
<path d="M9.61145 19.5811V36.3857L18.5462 32.4279L9.61145 19.5811Z" fill="#01A4E1"/>
<path d="M24.1448 29.9478L9.65295 19.4058L18.6711 32.3725L24.1448 29.9478Z" fill="#01A4E1"/>
<path d="M9.61145 36.5321V48.356L22.9008 38.6888L18.6242 32.5398L9.61145 36.5321Z" fill="#01A4E1"/>
<path d="M0 42.9224V48.8344L6.65216 50.313L8.40429 49.0435L0 42.9224Z" fill="#D3DADE"/>
<path d="M0 55.1328L6.50686 50.4181L0 48.9717V55.1328Z" fill="#D3DADE"/>
<path d="M44.0176 15.9473L49.383 9.23876V3.90324L44.0176 0V15.9473Z" fill="#D3DADE"/>
<path d="M52.1896 5.94482L49.5172 9.28608V13.5635L56.0899 8.78216L52.1896 5.94482Z" fill="#D3DADE"/>
<path d="M49.5172 4.00073V9.07105L52.081 5.86575L49.5172 4.00073Z" fill="#D3DADE"/>
<path d="M44.0176 17.5642L49.383 13.6609V9.45361L44.0176 16.1622V17.5642Z" fill="#D3DADE"/>
<path d="M45.1251 20.1812L46.5413 24.785L48.9975 22.9981L45.1251 20.1812Z" fill="#D3DADE"/>
<path d="M44.0176 19.3752V26.6203L46.4264 24.868L44.9441 20.0492L44.0176 19.3752Z" fill="#D3DADE"/>
<path d="M73.1817 31.7531C73.3979 31.7531 73.3982 31.4172 73.1817 31.4172C72.9657 31.4172 72.9652 31.7531 73.1817 31.7531Z" fill="#D3DADE"/>
</svg>
