<svg width="151" height="47" viewBox="0 0 151 47" fill="none" xmlns="http://www.w3.org/2000/svg">
<path d="M73.573 32.9214L74.1168 30.2023H72.7961C67.9016 30.2023 66.037 27.4054 66.037 24.6085C66.037 20.4909 69.3777 15.6741 75.9814 15.6741H77.0691L77.6906 12.7996H84.8381L84.2943 15.6741H85.4597C88.1011 15.6741 92.2964 16.2956 92.2964 21.2678C92.2964 25.6962 89.1888 30.2023 82.7405 30.2023H81.3421L80.7982 32.9214H73.573ZM82.352 25.9293C84.2943 25.9293 85.4597 23.7539 85.4597 22.1224C85.4597 20.8794 84.7604 19.9471 83.5174 19.9471H83.1289L81.8859 25.9293H82.352ZM76.1368 19.9471C74.1945 19.9471 72.9515 21.9671 72.9515 23.7539C72.9515 24.8416 73.573 25.9293 74.8937 25.9293H75.2822L76.5252 19.9471H76.1368Z" fill="#006CB5"/>
<path d="M123.218 14.1204L121.042 24.8417L128.034 14.1204H136.503L132.696 32.9215H125.471L127.568 22.3556L120.576 32.9215H112.186L115.992 14.1204H123.218Z" fill="#006CB5"/>
<path d="M114.205 14.1204L113.118 19.6364H106.747L104.028 32.9215H96.8803L99.5218 19.6364H93.1511L94.3165 14.1204H114.205Z" fill="#006CB5"/>
<path d="M50.6544 14.1204L50.9651 24.3755H51.1205L55.5489 14.1204H66.1925L62.3857 32.9215H55.9373L58.9673 18.1603L52.0528 32.9215H46.0706L45.2937 18.1603L42.2638 32.9215H36.1262L39.9331 14.1204H50.6544Z" fill="#006CB5"/>
<path d="M0.543835 36.7283C1.16536 36.7283 1.86458 36.7283 2.4861 36.7283C3.02994 36.6506 3.57377 36.5729 3.96222 36.4952C5.36066 36.0291 5.74911 35.4075 6.05987 34.0091C7.69138 26.4731 9.08981 18.8594 10.7213 11.2457C11.4982 7.82734 12.0421 5.18585 12.7413 3.32128C13.1297 2.3113 13.5959 1.53439 14.062 0.990556C15.2274 -0.330185 17.0919 -0.330185 18.2573 0.990556C19.5004 2.3113 20.1996 4.87509 20.9765 8.06041C23.1518 18.3933 25.3272 28.8038 27.5025 39.2144C27.7356 40.2244 27.9686 41.079 28.2017 41.8559C28.5125 42.7881 28.6679 43.1766 29.134 43.1766C29.2117 43.1766 29.2894 43.0989 29.3671 43.0212C29.6778 42.7105 30.0663 41.5451 30.4547 40.3797C30.6878 39.6805 30.8432 38.9813 30.9986 38.6705C31.9309 36.6506 34.1062 36.7283 36.1262 36.7283H137.279L136.736 39.4474H37.0585C34.1062 39.4474 33.8731 39.6028 32.9408 42.3997C32.5524 43.4097 32.1639 44.4973 31.4647 45.3519C30.9209 45.9735 30.2217 46.5173 29.134 46.5173C25.7933 46.4396 25.0941 42.2443 24.5503 39.8359C22.4526 29.9692 20.4326 20.1802 18.4127 10.3134C18.0242 8.83732 17.7135 7.43888 17.325 6.04045C16.9366 4.48664 16.6258 3.70973 16.082 3.70973C15.5381 3.70973 15.2274 4.40895 14.9166 6.04045L9.24519 32.8437C8.93443 34.4752 8.62367 36.1844 7.536 37.5829C6.37064 38.9036 4.66144 39.8359 1.6315 39.7582C1.47612 39.7582 0.155381 39.7582 0 39.7582L0.543835 36.7283Z" fill="#006CB5"/>
<path d="M139.299 41.0012L140.232 35.4075L150.875 38.1266L139.299 41.0012Z" fill="#006CB5"/>
</svg>
